<?xml version="1.0" standalone="no"?>
<!DOCTYPE svg PUBLIC "-//W3C//DTD SVG 20010904//EN"
 "http://www.w3.org/TR/2001/REC-SVG-20010904/DTD/svg10.dtd">
<svg version="1.0" xmlns="http://www.w3.org/2000/svg"
 width="1080.000000pt" height="1080.000000pt" viewBox="0 0 1080.000000 1080.000000"
 preserveAspectRatio="xMidYMid meet">
<metadata>
Created by potrace 1.14, written by Peter Selinger 2001-2017
</metadata>
<g transform="translate(0.000000,1080.000000) scale(0.100000,-0.100000)"
fill="#000000" stroke="none">
<path d="M5729 8821 c-57 -8 -215 -57 -294 -91 -67 -29 -216 -132 -290 -201
-49 -47 -124 -138 -160 -196 0 -1 -30 9 -65 24 -110 44 -435 82 -594 68 l-86
-7 -10 27 c-5 14 -10 43 -10 64 0 53 -27 148 -52 183 -23 33 -88 67 -127 68
-48 0 -109 -40 -153 -99 l-43 -58 -95 -6 c-52 -4 -124 -9 -160 -13 l-65 -6
-23 68 c-31 89 -61 128 -116 149 -38 15 -50 15 -83 4 -55 -18 -130 -101 -192
-212 -35 -63 -71 -113 -105 -144 -73 -68 -119 -128 -159 -208 -57 -114 -71
-180 -71 -345 -1 -126 2 -153 22 -210 59 -165 184 -288 424 -414 58 -31 108
-63 111 -70 3 -7 -15 -37 -39 -67 -63 -76 -187 -263 -239 -361 -93 -175 -129
-311 -123 -457 3 -72 10 -107 27 -142 39 -82 109 -143 203 -180 l57 -21 -15
-36 c-42 -100 -117 -594 -112 -732 4 -117 26 -167 111 -258 51 -55 57 -66 53
-95 -3 -17 -10 -86 -16 -152 -48 -564 -60 -1048 -36 -1445 l17 -276 -35 -58
c-45 -76 -60 -147 -53 -266 8 -150 62 -282 154 -381 72 -77 171 -119 321 -138
41 -5 75 -11 77 -13 2 -2 -8 -70 -20 -151 -39 -243 -56 -398 -53 -471 3 -61 6
-71 30 -89 40 -30 75 -17 99 37 15 35 22 92 34 292 8 137 17 281 21 320 l5 72
41 6 c67 11 158 45 205 77 64 44 149 155 178 233 35 94 41 163 20 271 -16 91
-56 177 -155 341 -47 78 -59 127 -67 279 l-6 124 64 -20 c108 -33 190 -48 391
-69 489 -52 993 -46 1328 16 103 19 283 73 394 118 l82 33 17 -141 c9 -78 33
-211 52 -296 93 -409 115 -515 134 -645 25 -176 48 -394 61 -600 11 -166 19
-205 53 -243 26 -28 79 -30 106 -3 37 37 44 93 31 251 -17 206 -57 535 -81
669 -11 62 -19 114 -17 116 2 2 32 -3 68 -12 103 -24 269 -5 360 42 114 58
194 154 231 277 18 58 21 87 17 171 -9 173 -63 274 -176 328 -37 18 -68 33
-68 33 -1 1 -12 69 -23 151 -24 166 -124 654 -172 838 -17 65 -29 120 -27 121
1 1 37 19 78 38 128 61 208 130 240 209 16 39 5 87 -44 195 -19 40 -31 75 -28
78 3 3 17 6 31 6 39 0 119 67 166 137 77 114 111 265 102 448 l-5 110 42 -126
c63 -189 129 -281 264 -367 137 -88 277 -131 462 -142 69 -4 154 -15 190 -24
133 -32 277 -16 386 43 57 30 76 48 111 99 58 86 68 128 54 222 -16 108 -76
224 -157 305 -82 82 -152 117 -249 123 -86 5 -129 -12 -258 -103 -84 -59 -125
-68 -198 -43 -120 40 -170 144 -229 473 -53 294 -155 650 -233 815 -59 123
-211 402 -254 466 -100 147 -354 390 -463 442 -31 15 -35 23 -46 77 -73 360
-374 653 -749 730 -95 19 -248 27 -326 16z m-2347 -118 c9 -10 25 -49 37 -86
30 -99 48 -133 79 -146 29 -14 368 -5 409 10 12 4 36 29 54 56 100 149 132
138 155 -50 8 -63 21 -121 31 -139 20 -33 79 -68 117 -68 l25 0 -34 -72 c-59
-129 -121 -351 -132 -470 -5 -62 -4 -68 20 -92 65 -65 156 4 157 119 0 44 54
228 107 373 l57 152 36 0 c40 0 213 -20 219 -26 2 -2 -11 -33 -28 -69 -103
-213 -167 -450 -216 -804 -17 -118 -17 -126 0 -157 23 -44 65 -61 105 -44 42
17 56 49 70 155 13 100 81 434 110 535 26 92 99 332 102 335 2 2 13 -5 25 -15
l22 -18 -20 -68 c-16 -51 -22 -107 -26 -214 -4 -132 -2 -154 21 -243 39 -153
110 -278 228 -402 l66 -70 -46 -57 c-121 -146 -166 -271 -252 -697 -69 -342
-69 -339 -103 -407 -48 -94 -113 -127 -205 -104 -55 13 -67 23 -90 64 -15 27
-17 70 -17 346 0 273 -2 322 -18 371 -22 69 -77 125 -167 171 -58 29 -74 33
-150 33 -75 0 -92 -4 -144 -30 -125 -63 -247 -211 -381 -460 -61 -115 -152
-217 -226 -256 -112 -58 -248 -3 -280 115 -38 137 100 460 307 719 28 35 63
90 78 122 26 57 26 60 11 105 -8 25 -28 61 -44 80 -29 36 -38 41 -221 129
-237 114 -335 249 -333 461 1 196 54 324 194 479 48 53 125 153 171 223 46 70
88 128 94 128 6 0 18 -8 26 -17z m2683 -42 c88 -23 219 -83 293 -133 232 -158
367 -426 348 -693 -14 -209 -97 -378 -259 -532 -132 -124 -300 -206 -477 -234
-117 -18 -307 -7 -413 25 -280 83 -489 282 -579 551 -33 100 -33 297 0 402 45
145 139 311 218 385 133 126 307 209 524 252 57 11 267 -3 345 -23z m900 -914
l80 -76 -156 -153 c-180 -176 -234 -249 -234 -315 0 -38 5 -49 33 -74 35 -31
80 -38 118 -16 12 7 50 44 84 82 107 119 142 158 224 248 l80 86 23 -33 c12
-19 47 -80 77 -137 l54 -102 -51 -59 c-29 -32 -76 -97 -105 -145 -61 -101 -65
-137 -19 -163 24 -13 30 -13 54 0 15 8 41 40 59 71 33 56 119 159 133 159 8 0
55 -98 89 -185 24 -62 82 -260 82 -281 0 -27 -31 -77 -116 -185 -85 -109 -125
-147 -217 -212 -37 -26 -57 -47 -60 -65 -6 -28 7 -223 23 -357 15 -119 12
-292 -5 -358 -31 -120 -92 -207 -145 -207 -58 0 -70 26 -70 151 0 61 7 159 17
218 23 151 23 309 0 344 -44 67 -110 57 -146 -21 -11 -26 -41 -132 -65 -237
-63 -271 -132 -436 -210 -500 -71 -57 -164 -99 -233 -103 -55 -4 -62 -2 -73
18 -21 39 -3 124 70 340 133 394 159 526 167 847 l5 233 89 56 c54 34 96 68
104 85 64 123 -82 243 -191 157 -33 -27 -37 -21 -59 89 -9 46 -25 105 -36 131
l-21 47 34 25 c61 45 176 169 226 244 75 112 126 258 147 419 l6 47 27 -19
c15 -10 63 -53 107 -94z m-1577 -686 c239 -119 529 -137 788 -47 38 13 85 31
105 40 l36 15 32 -97 c48 -151 52 -179 58 -452 4 -208 2 -276 -11 -370 -20
-136 -74 -359 -111 -456 -119 -310 -145 -399 -145 -499 0 -74 26 -133 71 -168
36 -27 96 -47 142 -47 l27 0 0 -362 c-1 -386 -11 -675 -31 -825 l-11 -91 -111
-47 c-361 -154 -620 -199 -1157 -198 -341 0 -741 28 -937 64 l-111 21 -8 86
c-18 219 32 1009 66 1046 5 4 40 3 79 -4 136 -23 223 17 330 153 66 82 121
189 165 315 46 132 40 171 -26 172 -39 0 -73 -36 -103 -110 -75 -183 -166
-319 -237 -356 -15 -8 -50 -14 -79 -14 -75 0 -247 27 -353 56 -50 13 -174 45
-275 71 -209 53 -259 78 -301 153 -22 39 -25 56 -23 125 2 88 39 342 78 542
14 70 25 142 25 159 0 30 5 34 73 66 121 58 221 163 327 343 137 233 205 320
283 365 93 53 193 34 232 -45 19 -37 20 -60 20 -345 1 -287 2 -309 23 -370 27
-82 68 -132 135 -164 167 -81 340 -39 440 106 64 95 86 169 161 539 54 265 84
377 127 462 47 93 121 197 141 197 5 0 34 -13 66 -29z m2307 -897 l7 -61 -56
-86 c-53 -81 -145 -187 -164 -187 -5 0 -17 27 -27 59 l-18 60 55 63 c58 68
132 164 162 212 23 37 31 25 41 -60z m113 -329 c9 -19 7 -35 -7 -78 -30 -86
-107 -229 -136 -249 -5 -4 -25 8 -44 26 l-34 34 55 61 c30 33 74 99 99 146 24
46 47 85 50 85 3 0 11 -11 17 -25z m604 -123 c82 -92 127 -211 128 -338 0 -57
-7 -64 -65 -64 -33 0 -34 0 -40 58 -12 107 -53 253 -88 312 -31 51 -32 58 -18
68 27 18 38 14 83 -36z m-382 -98 c0 -63 -34 -240 -49 -257 -4 -4 -21 -4 -38
-1 l-31 6 25 67 c33 84 53 165 53 214 0 30 4 37 20 37 18 0 20 -7 20 -66z
m-1146 -392 c15 -29 52 -61 101 -88 11 -6 24 -24 29 -40 5 -16 21 -65 37 -110
16 -44 29 -87 29 -97 0 -24 -54 -82 -106 -112 -84 -49 -225 -88 -403 -110 -40
-6 -56 -4 -62 6 -5 8 -9 55 -9 104 0 50 -7 121 -15 159 -8 38 -14 70 -12 71 1
1 18 8 37 15 55 21 161 85 208 125 24 21 64 74 90 118 l47 81 6 -46 c4 -25 14
-59 23 -76z m-3359 -422 c72 -17 175 -44 230 -60 55 -15 126 -34 158 -40 46
-9 57 -15 53 -28 -14 -50 -28 -205 -47 -532 -22 -385 -21 -698 2 -885 7 -49
11 -114 11 -143 -2 -65 5 -79 80 -161 32 -35 73 -94 91 -130 29 -60 32 -74 32
-161 -1 -52 -7 -113 -14 -135 -48 -142 -187 -231 -377 -242 -164 -10 -293 26
-362 101 -128 139 -160 427 -57 529 25 26 26 42 10 312 -16 271 -19 794 -5
990 5 72 12 243 16 382 7 250 7 251 28 242 12 -5 80 -23 151 -39z m3292 -670
c45 -234 89 -486 98 -560 10 -74 21 -145 26 -158 8 -21 96 -72 125 -72 19 0
71 -65 85 -107 8 -22 14 -79 14 -133 0 -84 -3 -102 -29 -158 -50 -108 -129
-162 -266 -181 -84 -11 -134 -4 -224 31 l-59 24 -23 89 c-13 50 -44 174 -69
277 -40 163 -87 328 -110 380 -5 13 3 22 34 38 22 11 47 31 56 43 22 34 37
275 37 608 l0 286 82 10 c44 6 95 10 111 9 l30 -1 82 -425z"/>
<path d="M3295 8145 c-31 -30 -34 -93 -7 -118 32 -29 77 -22 106 16 32 42 33
77 3 105 -31 29 -72 28 -102 -3z"/>
<path d="M3586 8075 c-30 -28 -35 -78 -10 -113 11 -16 25 -22 52 -22 61 1 96
41 81 94 -18 64 -77 84 -123 41z"/>
<path d="M5845 7935 c-45 -44 -22 -105 39 -105 29 0 76 39 76 63 0 8 -9 26
-21 41 -26 33 -62 34 -94 1z"/>
<path d="M6161 7924 c-12 -15 -21 -32 -21 -39 0 -27 41 -65 70 -65 29 0 70 38
70 65 0 27 -41 65 -70 65 -19 0 -36 -9 -49 -26z"/>
<path d="M5923 7686 c-4 -5 2 -15 12 -22 22 -16 119 -37 142 -31 10 3 31 8 46
11 22 5 28 12 25 28 -3 19 -9 21 -111 22 -60 0 -111 -3 -114 -8z"/>
<path d="M6106 3929 c-32 -26 -63 -84 -72 -136 -12 -79 58 -118 131 -73 37 23
47 40 35 60 -7 11 -17 8 -47 -13 -22 -15 -47 -27 -56 -27 -25 0 -32 45 -13 94
21 55 48 80 75 71 24 -7 29 13 9 33 -17 17 -32 15 -62 -9z"/>
<path d="M5925 3903 c-71 -7 -95 -14 -95 -28 0 -11 12 -15 41 -15 l41 0 -46
-51 c-66 -74 -59 -100 29 -98 71 1 100 11 100 34 0 18 -6 20 -60 16 l-59 -3
47 55 c62 73 63 96 2 90z"/>
<path d="M5260 2360 c-6 -12 -15 -60 -20 -108 -11 -110 -30 -549 -33 -754 -2
-145 0 -158 19 -185 26 -35 62 -40 91 -13 45 41 48 77 48 550 -1 503 -3 522
-62 528 -24 2 -34 -2 -43 -18z"/>
</g>
</svg>
